<?xml version="1.0" encoding="utf-8"?>
<!-- Generator: Adobe Illustrator 17.0.0, SVG Export Plug-In . SVG Version: 6.00 Build 0)  -->
<!DOCTYPE svg PUBLIC "-//W3C//DTD SVG 1.1//EN" "http://www.w3.org/Graphics/SVG/1.1/DTD/svg11.dtd">
<svg version="1.1" id="Calque_1" xmlns="http://www.w3.org/2000/svg" xmlns:xlink="http://www.w3.org/1999/xlink" x="0px" y="0px"
	 width="752px" height="752px" viewBox="0 0 752 752" enable-background="new 0 0 752 752" xml:space="preserve">
<path d="M428.271,189.002c-23.216,0.028-46.421,11.312-55.393,33.792c-4.407-0.925-8.977-1.407-13.651-1.407
	c-36.208,0-65.718,29.444-65.718,65.647c0,34.093,26.177,62.19,59.471,65.343v66.339c0,0.205,0.008,0.409,0.023,0.611
	c0.184,2.754,1.592,5.106,3.153,6.736c1.678,1.751,3.628,2.992,5.839,4.116c4.419,2.246,10.001,3.959,16.671,5.422
	c13.341,2.923,30.947,4.654,49.627,4.654c18.667,0,36.263-1.731,49.602-4.654c6.668-1.463,12.25-3.176,16.669-5.422
	c2.208-1.124,4.159-2.365,5.837-4.116c1.587-1.655,3.012-4.053,3.161-6.86h0.005c0.01-0.162,0.015-0.326,0.015-0.488v-66.339
	c33.32-3.153,59.501-31.252,59.501-65.343c0-36.2-29.514-65.647-65.751-65.647c-4.652,0-9.215,0.483-13.617,1.407
	c-8.992-22.573-32.218-33.817-55.441-33.789L428.271,189.002z M428.265,201.391c19.728-0.033,39.465,9.748,45.268,29.436
	l0.003,0.003c0.212,1.951,1.347,3.681,3.05,4.657c0.086,0.048,0.172,0.099,0.26,0.144c0.04,0.02,0.081,0.043,0.124,0.063
	c1.708,0.864,3.722,0.879,5.443,0.04c4.722-1.364,9.741-2.095,14.915-2.095c29.631,0,53.498,23.822,53.498,53.392
	c0,29.57-23.867,53.392-53.498,53.392c-10.124,0-19.529-2.779-27.582-7.64c8.558-8.73,15.274-20.049,19.418-32.832v0.003
	c0.536-1.554,0.424-3.259-0.311-4.73c-0.733-1.471-2.029-2.587-3.593-3.093c-1.564-0.508-3.267-0.364-4.725,0.397
	s-2.547,2.077-3.027,3.651c-4.305,13.285-11.529,24.261-20.492,31.771v-0.003c-0.667,0.359-1.261,0.834-1.754,1.407
	c-7.992,6.142-17.239,9.599-26.967,9.599c-9.761,0-19.039-3.479-27.053-9.662v0.003c-0.46-0.523-1.008-0.96-1.615-1.299
	c-8.995-7.509-16.249-18.508-20.58-31.824c-0.488-1.564-1.582-2.865-3.037-3.618c-1.453-0.75-3.148-0.889-4.707-0.382
	c-1.556,0.505-2.845,1.615-3.58,3.078c-0.735,1.463-0.854,3.161-0.328,4.71c4.154,12.778,10.875,24.092,19.433,32.819
	c-8.043,4.861-17.472,7.646-27.599,7.646c-29.595,0-53.467-23.822-53.467-53.392c0-29.57,23.87-53.392,53.467-53.392
	c5.2,0,10.21,0.73,14.928,2.09c1.769,0.867,3.843,0.831,5.579-0.096c0.088-0.045,0.177-0.093,0.263-0.144
	c0.038-0.02,0.076-0.043,0.111-0.066c1.637-0.983,2.721-2.671,2.936-4.566c5.761-19.577,25.487-29.431,45.223-29.464
	L428.265,201.391z M396.598,341.036c9.336,6.448,20.113,10.168,31.695,10.168c11.58,0,22.351-3.717,31.682-10.16
	c9.069,6.269,19.792,10.311,31.349,11.36v53.374c-3.81-1.554-8.292-2.832-13.424-3.962c-13.338-2.934-30.937-4.672-49.604-4.672
	c-18.683,0-36.291,1.738-49.632,4.672c-5.134,1.129-9.619,2.408-13.43,3.962v-53.374c11.565-1.046,22.303-5.089,31.366-11.365
	L396.598,341.036z M428.293,409.4c17.894,0,34.873,1.726,46.974,4.386c6.049,1.329,10.902,2.941,13.737,4.386
	c0.366,0.187,0.695,0.371,0.988,0.546c-0.293,0.174-0.619,0.359-0.983,0.546c-2.835,1.443-7.689,3.05-13.737,4.376
	c-12.1,2.653-29.08,4.371-46.976,4.371c-17.911,0-34.899-1.718-47.004-4.371c-6.051-1.327-10.905-2.934-13.743-4.376
	c-0.364-0.187-0.692-0.369-0.985-0.543c0.293-0.174,0.622-0.361,0.988-0.546c2.837-1.445,7.689-3.055,13.743-4.386
	c12.103-2.661,29.093-4.386,47.002-4.386L428.293,409.4z"/>
<path d="M623.811,45.922H185.062c-35.835,0-65.002,29.166-65.002,65.002v520.002c0,35.835,29.166,65.002,65.002,65.002h438.748
	c8.94,0,16.252-7.312,16.252-16.252l-0.007-617.521c0-8.933-7.312-16.245-16.252-16.245L623.811,45.922z M185.062,663.426
	c-17.954,0-32.496-14.543-32.496-32.496v-16.252c0-17.954,14.543-32.497,32.496-32.497h243.745c4.47,0,8.123-3.659,8.123-8.123
	c0-4.47-3.659-8.123-8.123-8.123l-178.756-0.013V249.038c0-4.47-3.659-8.123-8.123-8.123c-4.47,0-8.123,3.659-8.123,8.123v316.884
	h-48.749c-12.512,0-23.886,4.792-32.496,12.512l-0.007-467.52c0-17.954,14.543-32.497,32.496-32.497H233.8v105.627
	c0,4.47,3.659,8.123,8.123,8.123c4.47,0,8.123-3.659,8.123-8.123l0.007-105.634h357.511v487.508H493.82
	c-4.47,0-8.123,3.659-8.123,8.123c0,4.47,3.659,8.123,8.123,8.123H607.57v81.252L185.062,663.426z M250.057,216.545
	c0,4.47-3.659,8.123-8.123,8.123c-4.47,0-8.123-3.659-8.123-8.123c0-4.47,3.659-8.123,8.123-8.123
	C246.405,208.423,250.057,212.082,250.057,216.545z M469.44,574.057c0,4.47-3.659,8.123-8.123,8.123
	c-4.47,0-8.123-3.659-8.123-8.123c0-4.47,3.659-8.123,8.123-8.123C465.787,565.927,469.44,569.586,469.44,574.057z"/>
</svg>
